<svg width="100" height="17" viewBox="0 0 100 17" fill="none" xmlns="http://www.w3.org/2000/svg">
<path d="M0.872 17H12.848V13.544H4.616V10.088H11.984V6.632H4.616V3.464H12.416V0.0079999H0.872V17ZM14.1172 17H18.5572L22.5892 10.16L26.7412 17H31.4452L25.3012 8.048L30.7972 0.0079999H26.2612L22.7812 5.96L19.1572 0.0079999H14.4532L20.0692 8.12L14.1172 17ZM33.1655 17H36.9095V9.656H44.1815V17H47.9255V0.0079999H44.1815V6.344H36.9095V0.0079999H33.1655V17ZM49.6244 17H53.7524L55.1684 13.4H61.7684L63.2324 17H67.4564L60.0644 0.0079999H56.9684L49.6244 17ZM60.4964 10.232H56.3444L58.4084 4.952L60.4964 10.232ZM69.1655 17H75.2855C80.3495 17 84.8375 14.048 84.8375 8.552C84.8375 2.336 80.2535 0.0079999 74.7815 0.0079999H69.1655V17ZM72.9095 3.464H75.1175C78.2855 3.464 80.9495 5.024 80.9495 8.36C80.9495 12.224 78.3335 13.544 74.8535 13.544H72.9095V3.464ZM87.5204 17H99.4964V13.544H91.2644V10.088H98.6324V6.632H91.2644V3.464H99.0644V0.0079999H87.5204V17Z" fill="white"/>
</svg>
