<svg width="39" height="38" viewBox="0 0 39 38" fill="none" xmlns="http://www.w3.org/2000/svg">
<g clip-path="url(#clip0_513_845)">
<path d="M29.0714 18.2322C29.0764 17.8967 28.7241 17.5236 28.3965 17.5177C28.0719 17.5117 27.8097 17.77 27.8047 18.0996C27.7998 18.4528 28.1313 18.8081 28.4717 18.813C28.7914 18.818 29.0665 18.5518 29.0714 18.2322Z" fill="white"/>
<path d="M0.333021 37.2569C0.492344 36.9085 0.767448 36.8026 1.14151 36.8056C2.64667 36.8195 4.15182 36.8115 5.73615 36.8115C5.61245 36.669 5.53031 36.574 5.44719 36.479C3.59568 34.3495 4.30224 30.9225 6.87714 29.7904C7.74995 29.4065 8.70885 29.2165 9.62917 28.9434C10.8464 28.5832 12.0626 28.221 13.2837 27.8776C13.5341 27.8073 13.6103 27.6985 13.6004 27.4422C13.5786 26.8999 13.5934 26.3566 13.5934 25.7678C13.4401 25.7609 13.3114 25.75 13.1818 25.75C11.923 25.749 10.6643 25.752 9.40552 25.748C8.19625 25.745 7.2799 25.2186 6.74849 24.13C6.21708 23.0415 6.3576 21.9915 7.11365 21.0415C8.69005 19.0604 10.2328 17.0496 11.8785 15.1278C12.3337 14.5964 13.065 14.2421 13.7369 13.9729C14.5949 13.6276 15.5202 13.4504 16.3633 13.2159C16.0407 12.5153 15.6577 11.7375 15.3222 10.9399C14.873 9.87112 14.6533 8.74893 14.6256 7.58716C14.589 6.06914 15.2114 4.88659 16.4118 3.99596C16.5909 3.86336 16.677 3.73471 16.6641 3.51206C16.6473 3.21617 16.6522 2.91831 16.6631 2.62242C16.7106 1.34982 17.439 0.425547 18.6581 0.0782029C18.7264 0.0584112 18.7897 0.0247656 18.8551 -0.00195312C19.1509 -0.00195312 19.4478 -0.00195312 19.7437 -0.00195312C19.9733 0.0821615 20.2137 0.144505 20.4305 0.254349C21.5249 0.805547 21.991 1.7407 21.9327 2.92523C21.903 3.52888 22.0742 3.91581 22.5561 4.31659C23.7931 5.34576 24.1087 6.74503 23.9346 8.30263C23.7327 10.1066 23.0469 11.7276 22.1395 13.2891C22.5808 13.3604 23.0311 13.4168 23.4734 13.5068C24.4383 13.7038 25.3616 14.0452 26.1473 14.633C26.6302 14.9932 27.0191 15.492 27.4041 15.966C27.6059 16.2153 27.5179 16.5182 27.2596 16.72C26.9983 16.9229 26.7311 16.8873 26.4877 16.6686C26.4422 16.628 26.4006 16.5795 26.366 16.529C25.5496 15.3118 24.3077 14.7725 22.945 14.6468C21.2419 14.4895 19.521 14.5241 17.8071 14.4816C16.6661 14.4539 15.536 14.5172 14.4544 14.9348C13.5687 15.2772 12.8038 15.7483 12.2041 16.5379C10.881 18.2786 9.49458 19.9718 8.12005 21.6729C7.64109 22.2656 7.47682 22.896 7.80635 23.5986C8.13786 24.3052 8.73656 24.5674 9.49656 24.5654C12.3119 24.5565 15.1263 24.5635 17.9417 24.5585C18.6522 24.5575 18.7036 24.5041 18.7046 23.7965C18.7086 22.1885 18.7056 20.5804 18.7046 18.9723C18.7046 18.9011 18.6987 18.8298 18.6947 18.7576C18.6621 18.7358 18.6294 18.715 18.5968 18.6933C18.4117 18.9505 18.1871 19.188 18.0495 19.4691C17.6794 20.2251 17.5666 21.0475 17.526 21.8787C17.4964 22.4962 17.3301 22.6743 16.7205 22.6753C15.1154 22.6773 13.5103 22.6744 11.9052 22.6773C11.6083 22.6783 11.3273 22.6516 11.1838 22.3409C11.0463 22.042 11.168 21.8025 11.359 21.5621C12.2337 20.4577 13.0986 19.3464 13.9675 18.2371C14.0209 18.1688 14.0724 18.0985 14.1357 18.0401C14.3762 17.8145 14.6434 17.7947 14.9096 17.9788C15.1689 18.1579 15.2332 18.4943 15.0442 18.7695C14.8205 19.094 14.5474 19.386 14.3307 19.7155C14.2416 19.8501 14.1921 20.0549 14.2169 20.2133C14.2832 20.6378 14.3999 21.0534 14.5019 21.4958C15.057 21.4958 15.5993 21.4898 16.1416 21.4987C16.4157 21.5027 16.3613 21.2998 16.4019 21.1425C16.5869 20.4161 16.6978 19.6561 16.9867 18.9733C17.533 17.6849 18.5107 17.2059 19.8506 17.4315C20.4879 17.5384 20.952 17.9075 21.3082 18.4251C21.8634 19.2316 22.09 20.1519 22.186 21.1078C22.2147 21.3978 22.2929 21.5205 22.6056 21.5037C23.0974 21.4779 23.5902 21.4967 24.0959 21.4967C24.2067 21.0049 24.3225 20.5378 24.4086 20.0668C24.4264 19.9669 24.3591 19.8313 24.2928 19.7402C24.0751 19.4404 23.8327 19.1584 23.613 18.8605C23.3685 18.531 23.4032 18.1905 23.6862 17.9758C23.9465 17.7789 24.2997 17.8274 24.5353 18.1242C25.4714 19.3058 26.4076 20.4874 27.316 21.6907C27.4318 21.8441 27.4704 22.1647 27.3882 22.331C27.3071 22.4962 27.03 22.6585 26.836 22.6605C25.133 22.6852 23.4289 22.6803 21.7248 22.6714C21.2855 22.6694 21.1331 22.4408 21.0658 21.9896C20.948 21.1999 20.8164 20.4072 20.6106 19.6373C20.5185 19.2939 20.2326 19.003 20.0346 18.6883C19.996 18.7051 19.9574 18.722 19.9189 18.7378C19.9099 18.7912 19.8921 18.8456 19.8921 18.8991C19.8911 20.5685 19.8882 22.2389 19.8931 23.9084C19.8951 24.4645 19.9812 24.5546 20.5463 24.5555C23.4477 24.5605 26.3492 24.5625 29.2506 24.5575C29.9542 24.5565 30.4906 24.2399 30.7914 23.5947C31.0823 22.9702 31.0091 22.3656 30.5856 21.8174C30.2461 21.377 29.8909 20.9495 29.5475 20.5111C29.2793 20.1687 29.2892 19.8125 29.5633 19.5898C29.8493 19.3573 30.1798 19.4137 30.4629 19.76C30.8379 20.2192 31.2179 20.6754 31.5682 21.1543C32.259 22.0974 32.3451 23.1197 31.8315 24.1607C31.3218 25.1948 30.452 25.7233 29.3051 25.7421C28.0216 25.7628 26.7371 25.747 25.4526 25.747C25.32 25.747 25.1874 25.747 25.0043 25.747C25.0043 26.3972 24.9905 27.0127 25.0202 27.6262C25.0241 27.7173 25.224 27.838 25.3536 27.8766C27.2794 28.4496 29.2091 29.0097 31.1368 29.5747C34.1283 30.4505 35.1931 34.1713 33.1229 36.5117C33.0526 36.5909 32.9823 36.671 32.8606 36.8096C33.209 36.8096 33.488 36.8096 33.7661 36.8096C34.9882 36.8096 36.2104 36.8135 37.4325 36.8066C37.7729 36.8046 38.0797 36.8392 38.2192 37.2123C38.3548 37.5745 38.1153 37.7823 37.8936 37.9961C25.3734 37.9961 12.8522 37.9961 0.332031 37.9961C0.333021 37.7516 0.333021 37.5042 0.333021 37.2569ZM23.8168 25.75C22.949 25.75 22.1227 25.7529 21.2973 25.749C20.6126 25.746 19.909 25.846 19.2944 25.4155C18.6809 25.8539 17.9763 25.744 17.2915 25.749C16.5632 25.7549 15.8348 25.749 15.1065 25.751C15.0006 25.751 14.8947 25.7648 14.8037 25.7708C14.8037 26.4041 14.8037 27.0038 14.8037 27.6213C16.6988 27.6213 18.5621 27.6193 20.4265 27.6242C20.5967 27.6242 20.7788 27.6302 20.9352 27.6886C21.2083 27.7905 21.3349 28.0191 21.2914 28.309C21.2508 28.5792 21.0846 28.7553 20.8075 28.7979C20.6868 28.8167 20.5611 28.8098 20.4374 28.8098C18.4988 28.8108 16.5602 28.8078 14.6216 28.8137C14.4158 28.8147 14.203 28.8444 14.0051 28.9018C12.2407 29.4104 10.4772 29.925 8.71677 30.4455C8.2101 30.596 7.67969 30.7108 7.2126 30.9463C6.10031 31.5054 5.465 32.7731 5.60453 34.0061C5.74703 35.2579 6.60995 36.3811 7.82615 36.6433C8.69104 36.8293 9.60245 36.7997 10.5188 36.8679C10.5188 35.8536 10.5188 34.9442 10.5188 34.0298C10.2912 33.9635 10.0418 33.9507 9.87755 33.826C9.71328 33.7013 9.53714 33.4608 9.54505 33.2777C9.55297 33.0947 9.74891 32.875 9.92208 32.7582C10.0349 32.682 10.2585 32.7325 10.4218 32.773C11.9181 33.1412 13.4213 33.4855 14.9027 33.9081C15.6904 34.1327 16.4009 34.2426 17.0352 33.5974C17.0599 33.5716 17.0976 33.5578 17.1302 33.54C18.3167 32.8908 19.7912 33.2461 20.5255 34.3811C20.6581 34.586 20.7748 34.6315 20.9975 34.5741C22.2028 34.2624 23.4121 33.9635 24.6194 33.6597C25.8267 33.3559 27.034 33.0491 28.2422 32.7513C28.6618 32.6474 28.9824 32.8176 29.0666 33.1629C29.1497 33.5053 28.9379 33.7963 28.5223 33.9091C28.3719 33.9497 28.2215 33.9893 28.0898 34.0249C28.0898 34.9739 28.0898 35.8813 28.0898 36.8036C28.739 36.8036 29.3555 36.8076 29.972 36.8007C30.1432 36.7987 30.3164 36.77 30.4856 36.7393C31.8522 36.4959 32.9319 35.2599 33.0011 33.8646C33.0734 32.3881 32.1748 31.1135 30.8072 30.7187C28.6876 30.1061 26.5708 29.4827 24.4561 28.8563C23.8841 28.6871 23.8168 28.5762 23.8168 27.9854C23.8168 27.2551 23.8168 26.5268 23.8168 25.75ZM15.9328 8.74101C15.9684 8.94685 15.9704 9.08539 16.0159 9.20711C16.3544 10.1185 16.6671 11.0418 17.054 11.9314C17.4686 12.8844 18.2851 13.2802 19.2875 13.2842C20.289 13.2872 21.0856 12.8913 21.5388 11.9542C21.7694 11.4772 21.9792 10.9893 22.1761 10.4975C22.5224 9.63263 22.7322 8.73607 22.7847 7.8019C22.7976 7.56737 22.7105 7.47534 22.4987 7.42586C21.803 7.26258 21.1271 7.28039 20.4889 7.63466C20.1554 7.81971 19.8239 8.01268 19.5062 8.22247C18.4216 8.93992 17.2737 9.25164 15.9328 8.74101ZM26.8558 34.3386C26.7123 34.3683 26.6164 34.3851 26.5214 34.4078C24.5719 34.8927 22.6234 35.3796 20.6749 35.8655C20.092 36.011 19.9169 35.917 19.6912 35.346C19.3498 34.4811 18.4652 34.1555 17.6596 34.6038C16.5622 35.2134 15.4647 35.8249 14.3713 36.4414C14.2337 36.5196 14.1149 36.6324 13.924 36.7769C18.3039 36.7769 22.5769 36.7769 26.8558 36.7769C26.8558 35.9605 26.8558 35.1728 26.8558 34.3386ZM22.469 6.21065C22.4848 6.17799 22.5007 6.14534 22.5165 6.11268C22.3463 5.87716 22.1969 5.62185 22.0019 5.4081C20.6492 3.92273 18.1475 3.86831 16.7185 5.28143C16.2089 5.78513 15.8972 6.38779 15.8289 7.10227C15.817 7.222 15.8774 7.4219 15.9635 7.46445C16.6849 7.82268 17.433 7.96617 18.198 7.59607C18.4741 7.46247 18.7442 7.31008 18.9976 7.1369C20.0435 6.42242 21.1489 5.93357 22.469 6.21065ZM17.8684 3.27654C18.8363 2.99648 19.7803 3.01924 20.7362 3.26664C20.7986 2.49477 20.7432 1.80701 20.0247 1.38643C19.4943 1.0757 18.9609 1.11826 18.4622 1.46362C17.8249 1.90497 17.8041 2.55711 17.8684 3.27654ZM11.7587 34.3297C11.7587 35.1787 11.7587 35.9833 11.7587 36.8056C12.0121 36.8056 12.2357 36.8244 12.4524 36.7967C12.5465 36.7848 12.6751 36.6958 12.7068 36.6106C12.9334 36.007 13.3678 35.6122 13.923 35.3272C14.0892 35.2421 14.2545 35.153 14.5118 35.0164C13.5271 34.77 12.6514 34.5523 11.7587 34.3297Z" fill="white"/>
<path d="M29.0714 18.2322C29.0664 18.5518 28.7913 18.818 28.4717 18.813C28.1323 18.8081 27.8008 18.4528 27.8047 18.0996C27.8087 17.77 28.0719 17.5117 28.3965 17.5177C28.7231 17.5236 29.0753 17.8967 29.0714 18.2322Z" fill="white"/>
</g>
<defs>
<clipPath id="clip0_513_845">
<rect width="38.5938" height="38" fill="white"/>
</clipPath>
</defs>
</svg>
