<svg width="52" height="38" viewBox="0 0 52 38" fill="none" xmlns="http://www.w3.org/2000/svg">
<g clip-path="url(#clip0_513_835)">
<path d="M51.4484 22.4188C51.2231 22.7665 51.0668 23.2119 50.753 23.4385C50.3688 23.7172 49.8648 23.9125 49.3921 23.9659C48.6419 24.0506 47.8749 23.9881 47.0609 23.9881C47.0609 24.6301 47.0635 25.2279 47.0609 25.8243C47.0505 27.5421 45.8641 28.7363 44.1477 28.7532C43.5786 28.7584 43.0082 28.7207 42.4417 28.761C40.6236 28.8887 39.1507 27.5916 39.2249 25.53C39.3096 23.1884 39.2445 20.843 39.2445 18.4988C39.2445 18.3243 39.2445 18.1498 39.2445 17.9493C38.3889 17.9493 37.5866 17.9493 36.7297 17.9493C36.7297 18.3517 36.7206 18.7372 36.731 19.1239C36.7532 19.9444 36.4745 20.6502 35.9562 21.2754C35.3219 22.0385 34.6812 22.7964 34.0743 23.5804C33.9206 23.7784 33.8334 24.0623 33.8047 24.3175C33.7605 24.72 33.806 25.1302 33.7878 25.5365C33.767 26.0105 33.4323 26.3335 33.0208 26.3101C32.6196 26.2879 32.3422 25.9793 32.3344 25.5131C32.324 24.9114 32.3084 24.3071 32.3449 23.7068C32.3579 23.4841 32.4699 23.234 32.6105 23.0556C33.3164 22.1622 34.0405 21.2845 34.7724 20.4119C35.1123 20.0069 35.2803 19.5654 35.2737 19.0289C35.2555 17.694 35.2698 16.3591 35.2672 15.0243C35.2646 14.3249 34.9924 14.0449 34.2918 14.0423C32.3266 14.0358 30.3601 14.0358 28.3949 14.0423C27.5172 14.0449 26.9689 14.5424 26.9728 15.3017C26.978 16.057 27.5302 16.5402 28.4119 16.5454C29.386 16.5519 30.3614 16.5454 31.3369 16.548C31.9255 16.5493 32.2407 16.798 32.2498 17.2564C32.2589 17.7357 31.932 18.0092 31.3199 18.0066C26.9989 17.9818 22.6778 17.9519 18.3568 17.9232C18.164 17.9219 17.9726 17.9232 17.7486 17.9232C17.6796 18.9299 17.617 19.861 18.4075 20.6685C19.1212 21.3978 19.7346 22.2286 20.3584 23.0413C20.5225 23.2549 20.6397 23.5648 20.641 23.8318C20.6579 28.1776 20.654 32.5247 20.6527 36.8705C20.6527 37.48 20.3792 37.8264 19.9182 37.8186C19.4624 37.8108 19.1928 37.4604 19.1928 36.851C19.1915 32.6836 19.1967 28.5162 19.1798 24.3488C19.1785 24.0857 19.0613 23.7797 18.9011 23.5687C18.362 22.8564 17.8007 22.157 17.2055 21.4902C16.5166 20.7193 16.1793 19.8493 16.2522 18.8153C16.2718 18.5418 16.2548 18.2657 16.2548 17.9558C15.4253 17.9558 14.6204 17.9558 13.7414 17.9558C13.7414 18.1173 13.7414 18.2892 13.7414 18.4611C13.7414 20.8703 13.744 23.2796 13.7401 25.6889C13.7375 27.6098 12.5953 28.7506 10.6757 28.7532C10.0415 28.7545 9.40859 28.7623 8.77436 28.7519C7.12173 28.7246 5.93663 27.5199 5.92361 25.8595C5.9197 25.2591 5.92231 24.6588 5.92231 23.9868C5.20343 23.9868 4.51191 23.9881 3.82038 23.9868C2.34356 23.9855 1.53613 23.1754 1.53613 21.6908C1.53483 16.8722 1.53483 12.0537 1.53613 7.23647C1.53613 5.75314 2.34487 4.93528 3.81648 4.93007C4.49628 4.92747 5.17609 4.93007 5.92231 4.93007C5.92231 4.33752 5.92101 3.77363 5.92231 3.21103C5.92491 1.3331 7.08397 0.176647 8.96841 0.17274C9.60263 0.171438 10.2356 0.164928 10.8698 0.174044C12.5419 0.198788 13.7153 1.36956 13.7362 3.04043C13.7479 3.90256 13.7414 4.76599 13.7375 5.62811C13.7349 6.21546 13.4809 6.53452 13.0251 6.53973C12.5589 6.54624 12.2815 6.20504 12.2776 5.59946C12.2724 4.76989 12.2828 3.93902 12.2737 3.10945C12.2633 2.1783 11.7514 1.65607 10.8268 1.63914C10.1613 1.62612 9.49454 1.62612 8.82906 1.63914C7.90963 1.65737 7.3848 2.19132 7.3848 3.11596C7.3822 10.685 7.3822 18.254 7.3848 25.8243C7.3848 26.7372 7.92656 27.2725 8.84469 27.2868C9.46198 27.2959 10.0793 27.2907 10.6966 27.2881C11.7697 27.2842 12.275 26.7815 12.275 25.7032C12.2776 20.2661 12.2763 14.8289 12.2763 9.39309C12.2763 9.2303 12.2672 9.06621 12.2867 8.90472C12.3401 8.47626 12.637 8.21189 13.0329 8.22101C13.4366 8.23143 13.7179 8.50101 13.7283 8.94379C13.7453 9.60667 13.7323 10.2708 13.7323 10.965C14.9095 10.965 16.0386 10.965 17.2329 10.965C17.2329 10.5144 17.2472 10.0651 17.2303 9.61578C17.1821 8.37599 17.5962 7.36409 18.7097 6.7507C19.801 6.14904 20.8663 6.30141 21.9029 7.05284C22.3809 6.42643 22.9852 5.98234 23.7731 5.8469C24.5636 5.71016 25.2876 5.89248 25.9753 6.37303C26.5834 5.46402 27.4052 4.91054 28.5239 4.93789C29.6452 4.96393 30.4461 5.54086 31.0178 6.51368C31.738 6.10215 32.4803 5.89378 33.3047 6.09174C34.5145 6.38345 35.4144 7.41358 35.4678 8.66119C35.5003 9.42043 35.4743 10.1823 35.4743 10.9689C36.7519 10.9689 37.963 10.9689 39.2406 10.9689C39.2406 10.7853 39.2406 10.6121 39.2406 10.4388C39.2406 8.02957 39.238 5.6203 39.2419 3.21103C39.2445 1.32138 40.3931 0.175346 42.2802 0.171439C42.9144 0.170137 43.5473 0.163624 44.1815 0.17274C45.8706 0.198787 47.0466 1.393 47.0583 3.08731C47.0622 3.68507 47.0583 4.28283 47.0583 4.92877C47.6548 4.92877 48.2057 4.96784 48.75 4.92096C50.0315 4.81026 50.9601 5.25956 51.4458 6.49545C51.4484 11.805 51.4484 17.1119 51.4484 22.4188ZM47.0609 6.39647C47.0609 6.62177 47.0609 6.79759 47.0609 6.9721C47.0609 10.293 47.0609 13.6126 47.0609 16.9335C47.0609 17.0793 47.0753 17.2291 47.0505 17.3723C46.9815 17.776 46.7393 18.0235 46.3238 18.0183C45.9084 18.0131 45.6701 17.763 45.6102 17.358C45.5867 17.1978 45.6011 17.0337 45.6011 16.8709C45.6011 12.3298 45.6011 7.78864 45.5998 3.24749C45.5998 2.14444 45.0958 1.64435 43.9888 1.64044C43.4197 1.63784 42.8519 1.63784 42.2828 1.64044C41.2045 1.64696 40.7083 2.14314 40.707 3.22796C40.7044 5.60467 40.7057 7.98008 40.7057 10.3568C40.7057 15.4671 40.7044 20.5786 40.707 25.6889C40.707 26.7958 41.2058 27.2881 42.3179 27.2907C42.9027 27.292 43.4874 27.2946 44.0721 27.2894C45.0749 27.2816 45.5971 26.7555 45.5984 25.7449C45.6024 24.0362 45.5971 22.3263 45.6011 20.6177C45.6024 20.0186 45.8889 19.6722 46.3551 19.6891C46.8044 19.7048 47.0583 20.0329 47.0609 20.6164C47.0648 21.2441 47.0622 21.8731 47.0622 22.5295C47.8098 22.5295 48.4909 22.5321 49.1707 22.5282C49.814 22.5243 49.9846 22.3563 49.9859 21.7233C49.9885 20.2257 49.9872 18.728 49.9872 17.2317C49.9872 13.8952 49.9885 10.5587 49.9859 7.22214C49.9859 6.5827 49.8101 6.40299 49.1876 6.39908C48.5039 6.39387 47.8228 6.39647 47.0609 6.39647ZM5.90017 6.39647C5.19823 6.39647 4.54967 6.39517 3.90113 6.39647C3.14188 6.39778 2.99993 6.54103 2.99993 7.312C2.99993 12.0771 2.99993 16.8436 2.99993 21.6087C2.99993 21.722 2.99342 21.8366 3.00383 21.9499C3.03379 22.2859 3.2122 22.5099 3.55471 22.5165C4.32828 22.5321 5.10316 22.5217 5.90017 22.5217C5.90017 17.1353 5.90017 11.7932 5.90017 6.39647ZM25.7578 16.4438C25.3788 15.5999 25.4778 14.8185 25.7968 13.9876C24.4268 14.687 23.2469 14.5007 22.1777 13.5136C22.1165 13.5592 22.0631 13.5917 22.0162 13.6321C20.4365 14.9618 18.4479 14.562 17.4803 12.7361C17.4113 12.6059 17.2016 12.4822 17.0518 12.4757C16.3707 12.4483 15.6883 12.4639 15.0072 12.4639C14.5944 12.4639 14.1802 12.4639 13.7739 12.4639C13.7739 13.8405 13.7739 15.1337 13.7739 16.4438C17.7642 16.4438 21.7206 16.4438 25.7578 16.4438ZM29.8262 9.70174C29.8262 9.06881 29.8379 8.43589 29.8236 7.80297C29.804 6.99423 29.2545 6.42252 28.5056 6.40299C27.7399 6.38345 27.1213 6.95386 27.1031 7.77432C27.0744 9.04016 27.0913 10.306 27.0978 11.5732C27.0991 11.732 27.133 11.9 27.189 12.0485C27.3375 12.434 27.5341 12.7348 28.0472 12.6033C28.2908 12.5408 28.5629 12.5811 28.8221 12.5811C29.5462 12.5785 29.8001 12.3441 29.821 11.6031C29.8405 10.9676 29.8262 10.3347 29.8262 9.70174ZM25.6275 10.1289C25.6275 9.6262 25.6406 9.12221 25.6249 8.61952C25.6002 7.87329 25.0584 7.3146 24.3513 7.27814C23.6155 7.24037 22.9578 7.75218 22.9226 8.50622C22.8719 9.57541 22.8706 10.6498 22.924 11.7177C22.9617 12.4717 23.6298 12.9862 24.3578 12.9406C25.0649 12.8963 25.6002 12.3363 25.6249 11.5901C25.6406 11.103 25.6275 10.616 25.6275 10.1289ZM34.0209 10.2487C34.0235 10.2487 34.0248 10.2487 34.0274 10.2487C34.0274 9.80982 34.0378 9.36965 34.0248 8.93077C34.0014 8.08687 33.4544 7.49823 32.6926 7.4826C31.9164 7.46567 31.3277 8.06604 31.2939 8.92556C31.277 9.36444 31.2861 9.80462 31.2913 10.2435C31.2978 10.7631 31.2704 11.2893 31.333 11.8024C31.4072 12.4092 31.6442 12.5785 32.225 12.5785C32.5011 12.5785 32.7772 12.5785 33.0533 12.5785C33.7318 12.5785 33.9779 12.3611 34.017 11.6643C34.0418 11.1942 34.0209 10.7201 34.0209 10.2487ZM21.4302 10.4206C21.4302 10.0156 21.4432 9.60927 21.4276 9.20425C21.4002 8.46324 20.8559 7.90325 20.1487 7.86678C19.4168 7.82902 18.7618 8.34994 18.7214 9.09616C18.6745 9.96871 18.6732 10.8491 18.7227 11.7216C18.7644 12.4457 19.4064 12.964 20.1123 12.9419C20.839 12.9197 21.4002 12.3506 21.4276 11.5875C21.4419 11.1994 21.4302 10.81 21.4302 10.4206ZM39.2249 12.4652C37.9721 12.4652 36.7584 12.4613 35.5446 12.4717C35.4509 12.473 35.3571 12.5707 35.18 12.6723C36.4614 13.2453 36.8183 14.2168 36.7349 15.4267C36.7115 15.7601 36.731 16.0974 36.731 16.4269C37.601 16.4269 38.4032 16.4269 39.2249 16.4269C39.2249 15.1128 39.2249 13.8314 39.2249 12.4652Z" fill="white"/>
<path d="M32.3332 32.9002C32.3332 31.568 32.3319 30.237 32.3345 28.9048C32.3358 28.2927 32.6002 27.9671 33.0768 27.9788C33.5326 27.9892 33.7918 28.3083 33.7931 28.893C33.797 31.5563 33.7957 34.2208 33.7931 36.884C33.7918 37.4779 33.4988 37.8321 33.039 37.8191C32.5923 37.806 32.3345 37.4753 32.3332 36.8957C32.3306 35.5648 32.3332 34.2325 32.3332 32.9002Z" fill="white"/>
</g>
<defs>
<clipPath id="clip0_513_835">
<rect width="51.5714" height="38" fill="white" transform="translate(0.214844)"/>
</clipPath>
</defs>
</svg>
