<svg width="43" height="38" viewBox="0 0 43 38" fill="none" xmlns="http://www.w3.org/2000/svg">
<g clip-path="url(#clip0_513_811)">
<path d="M0.046875 22.0176C0.186849 21.3078 0.282031 20.5858 0.474635 19.8918C1.28872 16.9669 2.90234 14.612 5.51594 13.0015C7.23146 11.9431 9.02872 11.8045 10.8753 12.6159C12.1261 13.1658 13.3758 13.7246 14.5963 14.336C16.5045 15.2927 17.5447 16.8786 17.7922 18.9876C17.8404 19.4011 17.5772 19.723 17.201 19.7599C16.8102 19.7979 16.5168 19.5621 16.4686 19.1296C16.3499 18.0656 15.9457 17.1413 15.1921 16.3734C14.0891 15.2502 12.7744 15.0602 11.3344 15.5274C9.81706 16.0203 8.67599 17.034 7.71633 18.2667C6.76227 19.4939 6.10159 20.8708 5.73094 22.383C5.70406 22.4914 5.68167 22.601 5.65031 22.7083C5.52714 23.1374 5.18112 23.361 4.80487 23.257C4.44318 23.1576 4.24497 22.8122 4.34352 22.3942C4.72536 20.7781 5.33005 19.2536 6.29307 17.8912C7.43414 16.2762 8.93242 15.1038 10.7666 14.3606C10.8551 14.3248 10.9413 14.2823 11.0365 14.2398C9.5931 13.2071 7.6581 13.225 6.20909 14.1381C4.07141 15.4849 2.68399 17.3983 1.89005 19.7666C1.35927 21.3481 1.23721 22.9698 1.56979 24.6016C1.92141 26.3261 3.04008 27.3811 4.61451 27.9355C4.44654 27.0984 4.27409 26.2601 4.11508 25.4174C4.07925 25.2274 4.07589 25.0263 4.0882 24.8329C4.11396 24.4294 4.38495 24.1735 4.75896 24.1746C5.13409 24.1757 5.36701 24.4294 5.42412 24.8374C5.52266 25.5393 5.56409 26.2646 5.77461 26.9341C6.53943 29.3784 8.69503 30.3396 11.0555 29.3493C11.2168 29.2823 11.4094 29.2264 11.5763 29.2498C11.8786 29.2912 12.0768 29.4924 12.116 29.8076C12.1597 30.1596 11.9928 30.401 11.6759 30.5351C10.2157 31.1532 8.73758 31.3119 7.25161 30.6436C5.87763 30.0255 4.50589 29.4041 3.15206 28.7447C1.39174 27.8863 0.585495 26.3417 0.213725 24.5088C0.153256 24.2104 0.102865 23.9097 0.047995 23.6102C0.0468752 23.0793 0.046875 22.5484 0.046875 22.0176Z" fill="white"/>
<path d="M31.5169 0.0451362C32.8998 0.0451362 34.2828 0.0429009 35.6657 0.0451362C41.0273 0.055195 44.4706 5.35843 42.2893 10.2604C41.6028 11.8017 40.8839 13.3295 40.1594 14.854C40.0273 15.1311 40.0542 15.3189 40.221 15.5704C43.5322 20.5439 41.9836 27.3045 36.8359 30.3334C36.5985 30.4731 36.2894 30.5535 36.0128 30.5569C34.5739 30.5793 33.135 30.5681 31.696 30.5658C31.163 30.5647 30.8618 30.3233 30.8573 29.9042C30.8528 29.484 31.1574 29.2269 31.6815 29.2258C33.0364 29.2224 34.3914 29.2336 35.7463 29.2168C35.968 29.2146 36.22 29.1487 36.4048 29.0302C39.5514 27.0285 41.1583 23.2352 40.4293 19.5615C39.7059 15.9168 36.8135 13.0478 33.1742 12.365C28.9492 11.5725 24.8631 13.714 23.114 17.6358C23.086 17.6995 23.0602 17.7643 23.03 17.8269C22.8239 18.2572 22.4891 18.4248 22.1308 18.2795C21.7467 18.1231 21.5922 17.7364 21.8072 17.3027C22.1285 16.6545 22.5059 16.0342 22.8329 15.3882C22.9057 15.244 22.9348 15.0138 22.8721 14.8741C22.1789 13.3351 21.4466 11.814 20.7579 10.2738C18.833 5.9709 21.2338 1.19966 25.8295 0.196017C26.3154 0.089841 26.8249 0.0574306 27.3255 0.0507247C28.723 0.0328424 30.1205 0.0451362 31.5169 0.0451362ZM39.0732 14.0738C39.838 12.3705 40.7036 10.7488 41.3061 9.03549C42.6006 5.35396 39.819 1.45337 35.9143 1.39525C32.9681 1.35167 30.0197 1.35055 27.0735 1.39637C23.4667 1.45225 20.6571 4.96167 21.6 8.43419C22.1207 10.351 23.1005 12.1425 23.8922 14.037C24.4051 13.5921 24.8328 13.2211 25.2651 12.8467C24.6783 11.5793 24.0904 10.3308 23.5204 9.07349C22.1946 6.15196 24.1778 3.06949 27.3871 3.05831C28.9794 3.05272 30.5718 3.05719 32.1641 3.05719C32.4295 3.05719 32.696 3.04825 32.9603 3.06502C33.3164 3.08849 33.5303 3.2986 33.5695 3.64396C33.6109 4.01278 33.425 4.26314 33.0667 4.35925C32.9211 4.39837 32.7632 4.39725 32.6109 4.39725C30.9066 4.39949 29.2034 4.39614 27.4991 4.40173C27.2348 4.40284 26.9638 4.40508 26.7085 4.45984C24.8866 4.85325 23.9538 6.72643 24.7231 8.46325C25.2371 9.62337 25.7858 10.7678 26.3222 11.9179C26.3546 11.9883 26.4039 12.0498 26.4431 12.1135C29.8506 10.4013 33.2246 10.4236 36.613 12.166C37.1875 10.9243 37.7608 9.71725 38.3062 8.4979C39.211 6.47496 37.884 4.42296 35.6679 4.39837C35.4026 4.39502 35.1349 4.4129 34.8729 4.38384C34.481 4.34137 34.2257 4.03178 34.2514 3.67302C34.276 3.32543 34.5381 3.07843 34.9233 3.06166C35.2021 3.04937 35.4821 3.05496 35.7609 3.05831C38.8179 3.09184 40.7988 6.13743 39.5827 8.94161C39.2938 9.60661 38.9769 10.2593 38.6723 10.9176C38.3633 11.5848 38.0553 12.251 37.7508 12.9093C38.1897 13.296 38.5973 13.6547 39.0732 14.0738Z" fill="white"/>
<path d="M12.5833 29.4493C12.7266 28.6658 12.87 27.6577 13.1096 26.6731C13.2115 26.2562 13.1264 26.0963 12.7692 25.9153C11.9361 25.4939 11.1421 24.9921 10.3023 24.5864C9.47589 24.1874 9.17243 23.5526 9.26649 22.6842C9.36839 21.7308 9.79391 20.9563 10.5968 20.4165C11.1119 20.07 11.6416 20.0253 12.2082 20.3516C13.151 20.8937 14.1219 21.3877 15.0637 21.9309C15.3716 22.1086 15.5429 22.0896 15.7882 21.8169C16.9617 20.5171 18.3491 19.5413 20.087 19.1379C21.227 18.873 22.3277 18.9691 23.3938 19.4687C24.555 20.013 25.7062 20.5819 26.8887 21.0781C28.9188 21.9298 29.9446 23.5291 30.304 25.6057C31.052 29.9288 28.7845 34.8162 24.9951 37.0403C23.2012 38.0932 21.3367 38.3122 19.4073 37.3443C18.3614 36.8202 17.2999 36.3195 16.2193 35.8713C14.1835 35.0263 13.1858 33.4181 12.7972 31.3482C12.6919 30.8005 12.6684 30.2395 12.5833 29.4493ZM29.1294 27.7359C29.1327 26.1142 28.9222 25.1039 28.5213 24.2969C27.8013 22.8462 26.4407 22.0426 24.9749 22.2047C24.1004 22.3019 23.2784 22.5635 22.5629 23.0798C19.1666 25.5308 17.6481 28.8458 18.1487 33.0079C18.516 36.0613 21.4521 37.6338 24.2179 35.9518C27.4653 33.9769 28.8942 30.919 29.1294 27.7359ZM17.2831 34.833C15.3358 30.1132 18.3178 22.8518 23.6289 21.0669C22.9 20.7272 22.2382 20.3595 21.4453 20.3326C20.1195 20.2879 18.9628 20.7663 17.9796 21.5866C15.0838 24.003 13.6773 27.0966 14.0603 30.8843C14.2585 32.8313 15.282 34.2295 17.2831 34.833ZM14.6393 23.2195C13.7412 22.7278 12.8509 22.2393 11.9596 21.7532C11.3538 21.4223 11.1063 21.4972 10.8084 22.1376C10.7054 22.3601 10.6573 22.6115 10.6058 22.8541C10.5543 23.1022 10.6629 23.2586 10.898 23.3816C11.7614 23.8353 12.6124 24.3126 13.4691 24.7786C13.5486 24.8222 13.6393 24.8435 13.7199 24.8736C14.0312 24.3137 14.3279 23.7806 14.6393 23.2195Z" fill="white"/>
<path d="M31.5208 16.4651C34.0974 16.4885 36.2485 18.526 36.346 21.034C36.4512 23.7387 34.5453 25.955 31.9082 26.1942C31.7974 26.2042 31.6843 26.2109 31.5734 26.2042C31.1893 26.1796 30.9049 25.8891 30.9071 25.5325C30.9094 25.1928 31.1736 24.9279 31.5409 24.8686C31.9373 24.8038 32.3483 24.7658 32.7234 24.6317C34.2407 24.0841 35.1299 22.63 34.9988 20.9714C34.8813 19.4827 33.7279 18.2108 32.1882 17.8744C30.7078 17.5503 29.1356 18.2768 28.3898 19.6302C28.3495 19.7029 28.3171 19.7811 28.279 19.8549C28.0561 20.2785 27.7202 20.4271 27.3607 20.2651C26.9845 20.0952 26.8714 19.7152 27.0674 19.2748C27.8232 17.5749 29.6104 16.4472 31.5208 16.4651Z" fill="white"/>
</g>
<defs>
<clipPath id="clip0_513_811">
<rect width="43" height="38" fill="white"/>
</clipPath>
</defs>
</svg>
