<svg width="48" height="38" viewBox="0 0 48 38" fill="none" xmlns="http://www.w3.org/2000/svg">
<g clip-path="url(#clip0_513_824)">
<path d="M0.890625 20.908C1.34734 20.1833 2.0028 19.8979 2.85151 19.9818C3.24077 20.0201 3.63641 19.9882 4.05211 19.9882C4.09404 19.8022 4.1223 19.6254 4.17427 19.4558C4.36206 18.8405 4.94094 18.3865 5.59183 18.3637C6.0759 18.3464 6.55997 18.3555 7.04495 18.3582C8.09695 18.3637 8.73964 18.9909 8.75969 20.0474C8.77246 20.7284 8.76243 21.4094 8.76243 22.0904C8.76243 22.2535 8.76243 22.4167 8.76243 22.6063C9.50904 22.6063 10.2155 22.6063 11.005 22.6063C10.8993 22.4368 10.8117 22.2937 10.7206 22.1524C9.18633 19.7867 7.99485 17.2798 7.46976 14.482C6.30198 8.25841 10.0679 2.42589 16.2194 1.1788C20.4229 0.325526 24.0101 1.61546 26.9118 4.78242C27.0039 4.8827 27.0886 4.98935 27.1798 5.08963C27.199 5.1106 27.2318 5.1188 27.3029 5.15709C27.3931 5.06137 27.4971 4.96018 27.5909 4.85079C31.6631 0.0757429 38.8704 -0.405591 43.547 3.78511C43.5916 3.82522 43.6381 3.86533 43.6819 3.90727C44.0447 4.25733 44.0939 4.63747 43.8168 4.94469C43.5369 5.25555 43.1513 5.25737 42.7757 4.91734C41.7994 4.03489 40.7082 3.34936 39.4702 2.89355C35.6369 1.48328 31.3277 2.59818 28.6603 5.69677C28.601 5.76514 28.5427 5.83442 28.4825 5.90279C27.7414 6.74239 26.7951 6.7506 26.0749 5.89277C24.795 4.36854 23.2225 3.29831 21.3172 2.71396C15.4391 0.909872 9.28387 5.00303 8.68585 11.1127C8.42331 13.7937 9.11887 16.2815 10.3021 18.6372C10.9448 19.9152 11.7635 21.1049 12.4919 22.3411C12.635 22.5835 12.82 22.641 13.0871 22.6401C14.8876 22.6291 16.6889 22.6337 18.4903 22.6355C19.06 22.6355 19.3727 22.8816 19.3691 23.3183C19.3654 23.7504 19.05 23.9938 18.4784 23.9938C15.4218 23.9947 12.3642 23.9947 9.30758 23.9947C9.1444 23.9947 8.98031 23.9947 8.7916 23.9947C8.7916 24.951 8.7916 25.8645 8.7916 26.8071C13.8274 26.8071 18.844 26.8071 23.8925 26.8071C23.8925 25.8809 23.8925 24.9656 23.8925 23.9947C23.2052 23.9947 22.5297 24.0038 21.8541 23.992C21.3209 23.9829 21.0036 23.6027 21.1294 23.1405C21.227 22.7823 21.4859 22.6364 21.8432 22.6364C22.5205 22.6373 23.197 22.6364 23.9235 22.6364C23.9235 21.8078 23.9226 21.0238 23.9235 20.2407C23.9263 18.9371 24.5024 18.3628 25.8051 18.3619C26.1077 18.3619 26.4104 18.3619 26.7131 18.3619C27.8708 18.3628 28.3813 18.7894 28.6147 19.9918C29.1416 19.9918 29.6804 19.9873 30.2191 19.9927C31.2183 20.0028 31.8628 20.6409 31.8655 21.6455C31.8719 24.188 31.8728 26.7305 31.8655 29.273C31.8628 30.2676 31.2128 30.902 30.2073 30.9157C29.6795 30.923 29.1507 30.9166 28.6284 30.9166C28.3248 32.2029 27.8845 32.5466 26.5645 32.5466C26.2162 32.5466 25.868 32.5521 25.5207 32.5439C24.5963 32.5202 23.9591 31.9012 23.9317 30.9704C23.9098 30.2293 23.9253 29.4872 23.9244 28.7461C23.9244 28.5838 23.9244 28.4215 23.9244 28.2292C21.8195 28.2292 19.7693 28.2292 17.6616 28.2292C17.7491 28.3386 17.8084 28.4325 17.8859 28.5072C20.6171 31.1372 23.5653 33.4992 26.6802 35.6579C27.0768 35.9333 27.4569 35.9561 27.8544 35.678C32.9868 32.0862 37.74 28.0788 41.5487 23.0558C43.4075 20.6044 44.9153 17.9607 45.6127 14.9232C46.2052 12.3425 46.0238 9.84918 44.7576 7.47898C44.495 6.98762 44.5844 6.58377 44.9727 6.39142C45.352 6.20272 45.6947 6.35769 45.9536 6.84085C47.5544 9.82639 47.6246 12.9414 46.7075 16.1275C45.8315 19.1677 44.2261 21.8242 42.3072 24.3047C39.3335 28.1508 35.7773 31.4016 31.9457 34.3644C30.8928 35.1784 29.8098 35.9533 28.7241 36.7227C27.714 37.4374 26.8462 37.4247 25.8334 36.7218C22.2826 34.2577 18.9443 31.5374 15.8976 28.4662C15.7646 28.3322 15.543 28.2128 15.3616 28.211C13.2585 28.1936 11.1545 28.2 9.0505 28.2009C8.97757 28.2009 8.90464 28.2146 8.76334 28.2274C8.76334 28.7187 8.7679 29.1973 8.76243 29.675C8.75605 30.1892 8.78157 30.7079 8.71867 31.2147C8.62295 31.986 8.00397 32.511 7.22636 32.5402C6.84895 32.5548 6.46972 32.5457 6.09139 32.5457C4.79416 32.5457 4.36479 32.2102 4.04846 30.9166C3.65738 30.9166 3.25171 30.8865 2.85151 30.923C2.00553 31.0005 1.34643 30.7215 0.892448 29.9923C0.890625 26.962 0.890625 23.9346 0.890625 20.908ZM7.40048 25.4743C7.40048 23.734 7.39045 21.9928 7.40777 20.2525C7.41233 19.835 7.28014 19.67 6.85806 19.7147C6.58914 19.7439 6.31109 19.7448 6.04217 19.7147C5.59001 19.6646 5.41862 19.8223 5.4405 20.2927C5.47423 21.0019 5.456 21.7148 5.4405 22.4258C5.4323 22.8187 5.18981 23.0476 4.8124 23.0722C4.4277 23.0977 4.18338 22.8744 4.11136 22.4997C4.0749 22.3092 4.07216 22.1059 4.09222 21.9117C4.1378 21.4878 3.99468 21.2881 3.5416 21.3392C3.27268 21.3693 2.99555 21.3656 2.72571 21.3401C2.29998 21.2991 2.14592 21.4431 2.15048 21.8944C2.17236 23.9829 2.16051 26.0714 2.16051 28.1599C2.16051 29.562 2.16051 29.5456 3.56166 29.5611C3.99194 29.5656 4.10498 29.4198 4.09587 29.0123C4.07308 27.9229 4.0904 26.8326 4.08766 25.7432C4.08675 25.3813 4.18703 25.0805 4.55441 24.9428C5.0084 24.7723 5.44141 25.1087 5.44506 25.6557C5.45509 27.0331 5.44871 28.4106 5.44962 29.7871C5.44962 31.1901 5.44962 31.1719 6.85533 31.191C7.31934 31.1974 7.4105 31.0151 7.40686 30.6039C7.39045 28.8947 7.40048 27.1845 7.40048 25.4743ZM25.2818 25.4478C25.2818 27.2027 25.2882 28.9585 25.2764 30.7133C25.2745 31.0634 25.3885 31.2138 25.7495 31.1846C26.0348 31.1619 26.3238 31.1801 26.6119 31.1801C27.2181 31.1792 27.219 31.1783 27.219 30.5793C27.219 27.1599 27.219 23.7404 27.219 20.32C27.219 20.2288 27.2527 20.1149 27.2108 20.0529C27.1251 19.9271 27.0075 19.7512 26.8854 19.7357C26.5426 19.6919 26.1889 19.7457 25.8434 19.7129C25.4049 19.6718 25.2682 19.835 25.2736 20.2726C25.2937 21.9983 25.2818 23.7231 25.2818 25.4478ZM30.5045 25.4469C30.5045 24.2226 30.4981 22.9983 30.509 21.7749C30.5118 21.4705 30.4188 21.3264 30.0961 21.3419C29.7187 21.3592 29.3403 21.3529 28.9629 21.3438C28.7022 21.3374 28.5773 21.4304 28.5782 21.7111C28.5837 24.2044 28.5837 26.6986 28.5782 29.1919C28.5773 29.4754 28.7086 29.5611 28.9675 29.5529C29.2847 29.5428 29.6047 29.5255 29.9192 29.5574C30.3668 29.603 30.53 29.458 30.5172 28.9831C30.4826 27.8053 30.5054 26.6257 30.5045 25.4469Z" fill="white"/>
<path d="M23.611 11.635C23.4578 12.119 23.343 12.4709 23.2354 12.8255C22.6246 14.8338 22.0156 16.8421 21.403 18.8504C21.3547 19.0081 21.321 19.2187 21.207 19.2962C21.0129 19.4293 20.7202 19.5925 20.5407 19.5314C20.3146 19.4539 20.0684 19.195 19.9919 18.9625C19.5315 17.5568 19.1176 16.1347 18.6873 14.719C18.485 14.0544 18.2589 13.3962 18.0848 12.7243C18.0009 12.4007 17.8605 12.2995 17.5278 12.3032C15.7273 12.3196 13.9278 12.3114 12.1273 12.3105C11.9614 12.3105 11.7919 12.315 11.6296 12.2859C11.2841 12.2239 11.0544 11.9723 11.1045 11.6559C11.1419 11.4189 11.3661 11.1855 11.5612 11.0114C11.6606 10.9221 11.8794 10.9512 12.0435 10.9512C14.0855 10.9476 16.1284 10.9485 18.1705 10.9494C18.8487 10.9494 18.9964 11.0606 19.1997 11.7252C19.6755 13.2841 20.1477 14.8448 20.6628 16.5413C20.7576 16.2596 20.816 16.1001 20.8652 15.9378C21.538 13.7271 22.1989 11.5137 22.8935 9.31034C22.9738 9.05417 23.1889 8.7734 23.4205 8.64759C23.7778 8.45342 24.1434 8.70776 24.2929 9.18362C24.5727 10.077 24.859 10.9695 25.1024 11.8729C25.1945 12.212 25.3348 12.3232 25.6876 12.3196C27.4124 12.3004 29.1363 12.3105 30.8611 12.3123C31.027 12.3123 31.1965 12.3096 31.357 12.3433C31.718 12.418 31.9103 12.6624 31.8957 13.0234C31.8812 13.3816 31.677 13.6113 31.3068 13.6587C31.1874 13.6742 31.0653 13.6724 30.944 13.6724C28.9777 13.6733 27.0104 13.6742 25.044 13.6724C24.3065 13.6715 24.2117 13.5977 23.9893 12.8784C23.8799 12.5101 23.7669 12.1418 23.611 11.635Z" fill="white"/>
</g>
<defs>
<clipPath id="clip0_513_824">
<rect width="47.5" height="38" fill="white"/>
</clipPath>
</defs>
</svg>
