<svg width="20" height="20" viewBox="0 0 20 20" fill="none" xmlns="http://www.w3.org/2000/svg">
<path d="M10.0029 5.50879C7.51855 5.50879 5.51465 7.5127 5.51465 9.99707C5.51465 12.4814 7.51855 14.4854 10.0029 14.4854C12.4873 14.4854 14.4912 12.4814 14.4912 9.99707C14.4912 7.5127 12.4873 5.50879 10.0029 5.50879ZM10.0029 12.915C8.39746 12.915 7.08496 11.6064 7.08496 9.99707C7.08496 8.3877 8.39355 7.0791 10.0029 7.0791C11.6123 7.0791 12.9209 8.3877 12.9209 9.99707C12.9209 11.6064 11.6084 12.915 10.0029 12.915V12.915ZM15.7217 5.3252C15.7217 5.90723 15.2529 6.37207 14.6748 6.37207C14.0928 6.37207 13.6279 5.90332 13.6279 5.3252C13.6279 4.74707 14.0967 4.27832 14.6748 4.27832C15.2529 4.27832 15.7217 4.74707 15.7217 5.3252ZM18.6943 6.3877C18.6279 4.98535 18.3076 3.74316 17.2803 2.71973C16.2568 1.69629 15.0146 1.37598 13.6123 1.30566C12.167 1.22363 7.83496 1.22363 6.38965 1.30566C4.99121 1.37207 3.74902 1.69238 2.72168 2.71582C1.69434 3.73926 1.37793 4.98145 1.30762 6.38379C1.22559 7.8291 1.22559 12.1611 1.30762 13.6064C1.37402 15.0088 1.69434 16.251 2.72168 17.2744C3.74902 18.2979 4.9873 18.6182 6.38965 18.6885C7.83496 18.7705 12.167 18.7705 13.6123 18.6885C15.0146 18.6221 16.2568 18.3018 17.2803 17.2744C18.3037 16.251 18.624 15.0088 18.6943 13.6064C18.7764 12.1611 18.7764 7.83301 18.6943 6.3877V6.3877ZM16.8271 15.1572C16.5225 15.9229 15.9326 16.5127 15.1631 16.8213C14.0107 17.2783 11.2764 17.1729 10.0029 17.1729C8.72949 17.1729 5.99121 17.2744 4.84277 16.8213C4.07715 16.5166 3.4873 15.9268 3.17871 15.1572C2.72168 14.0049 2.82715 11.2705 2.82715 9.99707C2.82715 8.72363 2.72559 5.98535 3.17871 4.83691C3.4834 4.07129 4.07324 3.48145 4.84277 3.17285C5.99512 2.71582 8.72949 2.82129 10.0029 2.82129C11.2764 2.82129 14.0146 2.71973 15.1631 3.17285C15.9287 3.47754 16.5186 4.06738 16.8271 4.83691C17.2842 5.98926 17.1787 8.72363 17.1787 9.99707C17.1787 11.2705 17.2842 14.0088 16.8271 15.1572Z" fill="white"/>
</svg>
